<svg width="48" height="36" viewBox="0 0 48 36" fill="none" xmlns="http://www.w3.org/2000/svg">
<path d="M24 30.2375C37.2548 30.2375 48 24.5879 48 17.6188C48 10.6496 37.2548 5 24 5C10.7452 5 0 10.6496 0 17.6188C0 24.5879 10.7452 30.2375 24 30.2375Z" fill="url(#paint0_radial_835_360)"/>
<path d="M24.0002 29.3002C36.7373 29.3002 47.0627 24.0704 47.0627 17.619C47.0627 11.1676 36.7373 5.93774 24.0002 5.93774C11.2632 5.93774 0.937744 11.1676 0.937744 17.619C0.937744 24.0704 11.2632 29.3002 24.0002 29.3002Z" fill="#6181B6"/>
<path d="M28.6687 21.4063L29.8124 15.5188C30.0749 14.1875 29.8499 13.1938 29.1749 12.575C28.5187 11.975 27.3937 11.675 25.7437 11.675H23.7562L24.3187 8.75005C24.3374 8.63755 24.3187 8.52505 24.2437 8.4313C24.1687 8.33755 24.0749 8.30005 23.9624 8.30005H21.2249C21.0374 8.30005 20.8874 8.4313 20.8499 8.60005L19.6312 14.8438C19.5187 14.1313 19.2562 13.5313 18.8062 13.0438C17.9999 12.125 16.7437 11.6563 15.0374 11.6563H9.76868C9.58118 11.6563 9.43118 11.7875 9.39368 11.9563L6.93743 24.6313C6.91868 24.7438 6.93743 24.8563 7.01243 24.95C7.08743 25.0438 7.18118 25.0813 7.29368 25.0813H10.0499C10.2374 25.0813 10.3874 24.95 10.4249 24.7813L11.0249 21.725H13.0687C14.1374 21.725 15.0562 21.6125 15.7499 21.3875C16.4812 21.1438 17.1374 20.75 17.7187 20.2063C18.1874 19.775 18.5812 19.2875 18.8812 18.7625L18.3937 21.2938C18.3749 21.4063 18.3937 21.5188 18.4687 21.6125C18.5437 21.7063 18.6374 21.7438 18.7499 21.7438H21.4874C21.6749 21.7438 21.8249 21.6125 21.8624 21.4438L23.2124 14.5063H25.0874C25.8937 14.5063 26.1187 14.6563 26.1937 14.7313C26.2499 14.7875 26.3624 15.0125 26.2312 15.7063L25.1437 21.3125C25.1249 21.425 25.1437 21.5375 25.2187 21.6313C25.2937 21.725 25.3874 21.7625 25.4999 21.7625H28.3124C28.4812 21.7063 28.6312 21.575 28.6687 21.4063ZM15.9937 16.5313C15.8249 17.4125 15.5062 18.05 15.0374 18.4063C14.5687 18.7625 13.7999 18.95 12.7874 18.95H11.5687L12.4499 14.4125H14.0249C15.1874 14.4125 15.6562 14.6563 15.8437 14.8625C16.0874 15.1625 16.1437 15.7438 15.9937 16.5313V16.5313Z" fill="white"/>
<path d="M40.3688 13.0438C39.5626 12.125 38.3063 11.6562 36.6001 11.6562H31.2938C31.1063 11.6562 30.9563 11.7875 30.9188 11.9562L28.4626 24.6125C28.4438 24.725 28.4626 24.8375 28.5376 24.9313C28.6126 25.025 28.7063 25.0625 28.8188 25.0625H31.5751C31.7626 25.0625 31.9126 24.9313 31.9501 24.7625L32.5501 21.7062H34.5938C35.6626 21.7062 36.5813 21.5938 37.2751 21.3688C38.0063 21.125 38.6626 20.7313 39.2438 20.1875C39.7313 19.7375 40.1438 19.2313 40.4438 18.6875C40.7438 18.1437 40.9688 17.5438 41.1001 16.8875C41.4188 15.2563 41.1751 13.9813 40.3688 13.0438V13.0438ZM37.5001 16.5312C37.3313 17.4125 37.0126 18.05 36.5438 18.4062C36.0751 18.7625 35.3063 18.95 34.2938 18.95H33.0751L33.9563 14.4125H35.5313C36.6938 14.4125 37.1626 14.6562 37.3501 14.8625C37.6126 15.1625 37.6688 15.7438 37.5001 16.5312Z" fill="white"/>
<path d="M14.025 14.0375C15.075 14.0375 15.7688 14.225 16.125 14.6187C16.4813 15.0125 16.5563 15.6688 16.3688 16.6063C16.1813 17.5813 15.8063 18.2937 15.2625 18.7062C14.7188 19.1187 13.8937 19.325 12.7875 19.325H11.1188L12.15 14.0375H14.025V14.0375ZM7.3125 24.6875H10.0688L10.725 21.3312H13.0875C14.1375 21.3312 14.9813 21.2188 15.6563 20.9938C16.3313 20.7688 16.9313 20.4125 17.4938 19.8875C17.9625 19.4563 18.3375 18.9875 18.6188 18.4813C18.9 17.975 19.1063 17.4125 19.2188 16.7938C19.5188 15.2938 19.2938 14.1313 18.5625 13.2875C17.8313 12.4438 16.6688 12.0312 15.075 12.0312H9.76875L7.3125 24.6875Z" fill="#000004"/>
<path d="M21.2436 8.67505H23.9811L23.3249 12.0313H25.7624C27.2999 12.0313 28.3499 12.2938 28.9311 12.8375C29.5124 13.3813 29.6811 14.2438 29.4561 15.4438L28.3124 21.3313H25.5374L26.6249 15.725C26.7561 15.0875 26.6999 14.6563 26.4936 14.4313C26.2874 14.2063 25.8186 14.075 25.1249 14.075H22.9311L21.5249 21.3313H18.7874L21.2436 8.67505V8.67505Z" fill="#000004"/>
<path d="M35.5311 14.0375C36.5811 14.0375 37.2749 14.225 37.6311 14.6187C37.9874 15.0125 38.0624 15.6688 37.8749 16.6063C37.6874 17.5813 37.3124 18.2937 36.7686 18.7062C36.2249 19.1187 35.3999 19.325 34.2936 19.325H32.6249L33.6561 14.0375H35.5311ZM28.8186 24.6875H31.5749L32.2311 21.3312H34.5936C35.6436 21.3312 36.4874 21.2188 37.1624 20.9938C37.8374 20.7688 38.4374 20.4125 38.9999 19.8875C39.4686 19.4563 39.8436 18.9875 40.1249 18.4813C40.4061 17.975 40.6124 17.4125 40.7249 16.7938C41.0249 15.2938 40.7999 14.1313 40.0686 13.2875C39.3374 12.4438 38.1749 12.0312 36.5811 12.0312H31.2749L28.8186 24.6875Z" fill="#000004"/>
<defs>
<radialGradient id="paint0_radial_835_360" cx="0" cy="0" r="1" gradientUnits="userSpaceOnUse" gradientTransform="translate(14.4097 9.43766) scale(31.5179)">
<stop stop-color="white"/>
<stop offset="0.5" stop-color="#4C6B97"/>
<stop offset="1" stop-color="#231F20"/>
</radialGradient>
</defs>
</svg>
