<svg width="36" height="36" viewBox="0 0 36 36" fill="none" xmlns="http://www.w3.org/2000/svg">
<path d="M29.5992 12.3815C29.2161 12.25 28.8297 12.1283 28.4404 12.0163C28.5058 11.7491 28.566 11.4851 28.6194 11.2258C29.4967 6.96755 28.9232 3.53701 26.9644 2.40751C25.0864 1.32469 22.015 2.45377 18.9131 5.15335C18.6074 5.41988 18.3084 5.69409 18.0166 5.97573C17.8212 5.78845 17.6224 5.60481 17.4202 5.4249C14.1692 2.53843 10.9107 1.32188 8.95402 2.45462C7.07766 3.5408 6.52205 6.76576 7.3118 10.8014C7.39037 11.2011 7.47908 11.5987 7.57786 11.9939C7.11661 12.125 6.67153 12.2645 6.24558 12.413C2.43408 13.7419 0 15.8244 0 17.9845C0 20.2156 2.61309 22.4533 6.58294 23.8102C6.90478 23.9198 7.2293 24.0213 7.5562 24.1147C7.45003 24.5403 7.35578 24.9688 7.27355 25.3997C6.52064 29.3653 7.10859 32.5141 8.97989 33.5934C10.9126 34.7079 14.1566 33.5624 17.3152 30.8012C17.5713 30.5768 17.8218 30.3459 18.0664 30.1089C18.3824 30.4139 18.7069 30.71 19.0395 30.9969C22.0992 33.6296 25.121 34.6928 26.9904 33.6105C28.9214 32.4927 29.549 29.1101 28.7342 24.9947C28.67 24.6723 28.598 24.3515 28.5183 24.0325C28.7461 23.965 28.9697 23.8956 29.1877 23.8233C33.3148 22.456 36 20.2454 36 17.9845C36 15.8165 33.4873 13.7199 29.5992 12.3815V12.3815ZM28.7041 22.3636C28.5072 22.4287 28.3053 22.4916 28.0994 22.5527C27.6438 21.1104 27.029 19.5767 26.2765 17.992C26.9945 16.4451 27.5857 14.931 28.0285 13.498C28.3968 13.6046 28.7542 13.717 29.0987 13.8355C32.4301 14.9825 34.4621 16.678 34.4621 17.9845C34.4621 19.3762 32.2675 21.1828 28.7041 22.3636V22.3636ZM27.2256 25.2934C27.5858 27.1131 27.6372 28.7584 27.3985 30.0447C27.1842 31.2005 26.7531 31.971 26.2198 32.2796C25.0854 32.9364 22.6592 32.0828 20.0426 29.8311C19.7333 29.5644 19.4314 29.2891 19.1374 29.0056C20.1518 27.8962 21.1656 26.6065 22.155 25.1741C23.8954 25.0197 25.5396 24.7672 27.0307 24.4225C27.1041 24.7188 27.1693 25.0093 27.2256 25.2934V25.2934ZM12.2732 32.1661C11.1648 32.5575 10.2819 32.5688 9.74827 32.2611C8.61272 31.6062 8.14064 29.0779 8.78456 25.6866C8.86111 25.2858 8.94875 24.8873 9.04739 24.4914C10.522 24.8176 12.1542 25.0522 13.8987 25.1937C14.8949 26.5953 15.9379 27.8836 16.989 29.0116C16.7657 29.2278 16.537 29.4384 16.3032 29.6433C14.9064 30.8642 13.5068 31.7305 12.2732 32.1661V32.1661ZM7.08047 22.355C5.32505 21.755 3.87534 20.9752 2.88169 20.1243C1.98872 19.3597 1.53802 18.6005 1.53802 17.9845C1.53802 16.6736 3.49228 15.0016 6.75183 13.8652C7.14741 13.7274 7.56141 13.5973 7.99102 13.4753C8.44158 14.9406 9.03248 16.4727 9.74559 18.0219C9.0232 19.5941 8.42386 21.1507 7.96894 22.6333C7.67055 22.5478 7.3743 22.4551 7.08047 22.355V22.355ZM8.82113 10.506C8.14458 7.04841 8.59387 4.44024 9.72464 3.78563C10.929 3.08841 13.5921 4.08249 16.3991 6.57493C16.5822 6.73783 16.7622 6.90402 16.9393 7.07344C15.8933 8.19662 14.8598 9.47532 13.8725 10.8686C12.1794 11.0256 10.5587 11.2776 9.06862 11.6152C8.97682 11.2476 8.89429 10.8778 8.82113 10.5061V10.506ZM24.3499 14.3405C23.998 13.7326 23.633 13.1323 23.2552 12.5401C24.4038 12.6854 25.5043 12.8782 26.5378 13.1138C26.2275 14.1084 25.8408 15.148 25.3856 16.2139C25.0529 15.5826 24.7076 14.958 24.3499 14.3405V14.3405ZM18.0173 8.17257C18.7266 8.94108 19.437 9.79904 20.1358 10.73C18.7183 10.663 17.2984 10.6627 15.8809 10.7291C16.5804 9.80677 17.2969 8.94994 18.0173 8.17257ZM11.644 14.3511C11.2908 14.9636 10.952 15.5843 10.6277 16.2127C10.18 15.1505 9.79678 14.1061 9.48389 13.0975C10.511 12.8678 11.6063 12.6799 12.7477 12.5373C12.3656 13.1331 11.9977 13.7378 11.644 14.3509V14.3511ZM12.7804 23.5412C11.6013 23.4096 10.4895 23.2314 9.46266 23.0078C9.78047 21.9812 10.1721 20.9146 10.6296 19.8297C10.9551 20.4585 11.2954 21.0796 11.6501 21.6924C12.0149 22.3224 12.3926 22.9395 12.7804 23.5412ZM18.0598 27.9048C17.3308 27.1184 16.6037 26.2484 15.8937 25.3126C16.5831 25.3396 17.2858 25.3534 18 25.3534C18.7338 25.3534 19.4591 25.337 20.1731 25.3052C19.4721 26.2578 18.7643 27.1291 18.0598 27.9048ZM25.4001 19.7743C25.8813 20.8711 26.2869 21.9322 26.6089 22.9411C25.5652 23.1794 24.4382 23.3712 23.2508 23.5136C23.6313 22.9104 23.9998 22.2997 24.356 21.6819C24.7181 21.0538 25.0663 20.4178 25.4001 19.7743V19.7743ZM23.0238 20.9135C22.4785 21.8608 21.9025 22.7901 21.2968 23.7C20.1996 23.7777 19.1 23.8163 18 23.8157C16.8796 23.8157 15.7899 23.7808 14.7406 23.7128C14.1191 22.805 13.5321 21.8741 12.981 20.9219H12.9811C12.4325 19.9748 11.9202 19.0072 11.445 18.0212C11.9189 17.035 12.4298 16.067 12.9765 15.1192L12.9763 15.1193C13.5228 14.1712 14.1051 13.2443 14.7219 12.3404C15.7925 12.2594 16.8903 12.2172 17.9999 12.2172H18C19.1146 12.2172 20.2139 12.2598 21.2842 12.3414C21.8948 13.2439 22.4733 14.1677 23.0188 15.111C23.5673 16.0567 24.0848 17.0201 24.5707 17.9994C24.0898 18.9888 23.5739 19.9608 23.0238 20.9135V20.9135ZM26.1963 3.73979C27.4018 4.43504 27.8706 7.23868 27.1132 10.9153C27.0648 11.1499 27.0105 11.3888 26.9515 11.6311C25.4578 11.2863 23.8359 11.0299 22.1379 10.8706C21.1487 9.46196 20.1237 8.18129 19.0948 7.0726C19.3644 6.81266 19.6405 6.55945 19.9228 6.31323C22.5806 4.00037 25.0646 3.08715 26.1963 3.73979V3.73979ZM18 14.7699C19.7754 14.7699 21.2147 16.2091 21.2147 17.9845C21.2147 19.7599 19.7754 21.1992 18 21.1992C16.2246 21.1992 14.7853 19.7599 14.7853 17.9845C14.7853 16.2091 16.2246 14.7699 18 14.7699V14.7699Z" fill="#00D8FF"/>
</svg>
