<svg width="48" height="36" viewBox="0 0 48 36" fill="none" xmlns="http://www.w3.org/2000/svg">
<path fill-rule="evenodd" clip-rule="evenodd" d="M10.3865 0C7.80684 0 5.89942 2.25765 5.98604 4.70359C6.067 7.05727 5.96156 10.102 5.1952 12.5856C4.42319 15.0748 3.12396 16.6528 1 16.8561V19.1439C3.12396 19.3454 4.42507 20.9233 5.19332 23.4144C5.96156 25.898 6.067 28.9427 5.98415 31.2945C5.89942 33.7424 7.80684 36 10.3865 36H36.8079C39.3876 36 41.295 33.7424 41.2084 31.2945C41.1274 28.9427 41.2329 25.898 41.9992 23.4144C42.7693 20.9233 44.0667 19.3472 46.1906 19.1439V16.8561C44.0667 16.6528 42.7693 15.0748 41.9992 12.5856C41.2329 10.1001 41.1274 7.05539 41.2084 4.70359C41.295 2.25577 39.3857 0 36.8079 0H10.3865ZM31.6355 22.1604C31.6355 25.5308 29.1218 27.5738 24.951 27.5738H17.8505C17.6472 27.5738 17.4523 27.4931 17.3086 27.3494C17.1648 27.2056 17.0841 27.0107 17.0841 26.8075V9.19065C17.0846 8.98772 17.1656 8.79328 17.3092 8.64997C17.4529 8.50666 17.6475 8.42617 17.8505 8.42617H24.9115C28.3893 8.42617 30.6733 10.3091 30.6733 13.2032C30.6733 15.233 29.1368 17.0501 27.1805 17.3702V17.4756C29.8448 17.7675 31.6374 19.6127 31.6374 22.1604H31.6355ZM24.179 10.8533H20.1307V16.5737H23.5407C26.1768 16.5737 27.6305 15.5117 27.6305 13.6137C27.6305 11.8362 26.3802 10.8533 24.179 10.8533ZM20.1307 18.8426V25.1448H24.3297C27.0731 25.1448 28.5286 24.0433 28.5286 21.974C28.5286 19.9027 27.0336 18.8426 24.1527 18.8426H20.1307Z" fill="#7811F4"/>
</svg>
