<svg width="36" height="36" viewBox="0 0 36 36" fill="none" xmlns="http://www.w3.org/2000/svg">
<g clip-path="url(#clip0_1508_205)">
<path d="M12.1965 1.58252H22.5032L11.8039 33.1862C11.6939 33.511 11.4845 33.7932 11.2053 33.9931C10.926 34.1929 10.5909 34.3005 10.247 34.3005H2.22588C1.96538 34.3007 1.70863 34.2389 1.47685 34.1204C1.24507 34.0018 1.04493 33.8299 0.892982 33.619C0.741037 33.408 0.64166 33.1642 0.603067 32.9073C0.564475 32.6505 0.587776 32.3882 0.671049 32.1421L10.6393 2.69693C10.7492 2.37203 10.9586 2.08971 11.238 1.88972C11.5173 1.68972 11.8526 1.58254 12.1965 1.58252Z" fill="url(#paint0_linear_1508_205)"/>
<path d="M27.1736 22.78H10.8296C10.6776 22.7798 10.5291 22.8254 10.4034 22.9105C10.2778 22.9957 10.1808 23.1165 10.125 23.2575C10.0693 23.3983 10.0574 23.5529 10.0909 23.7005C10.1244 23.8484 10.2018 23.9825 10.313 24.0858L20.8152 33.8582C21.121 34.1425 21.5236 34.3007 21.9417 34.3004H31.1963L27.1736 22.78Z" fill="#0078D4"/>
<path d="M12.1964 1.58229C11.8487 1.58096 11.5097 1.6905 11.2289 1.89489C10.9481 2.09929 10.7402 2.38784 10.6356 2.7184L0.683175 32.1151C0.594304 32.3619 0.566401 32.6267 0.601833 32.8865C0.637262 33.1466 0.734981 33.3943 0.886725 33.6085C1.03847 33.823 1.23977 33.9977 1.47359 34.1181C1.70743 34.2385 1.9669 34.301 2.23009 34.3003H10.4583C10.7647 34.2458 11.0512 34.111 11.2883 33.91C11.5255 33.709 11.7048 33.4488 11.8081 33.156L13.7928 27.3248L20.8822 33.9169C21.1792 34.1618 21.5519 34.2974 21.9374 34.3003H31.1577L27.1139 22.7799L15.3254 22.7827L22.5404 1.58229H12.1964Z" fill="url(#paint1_linear_1508_205)"/>
<path d="M25.3604 2.69535C25.2505 2.37097 25.0415 2.08913 24.7627 1.8895C24.4836 1.68984 24.149 1.58247 23.8056 1.58252H12.3188C12.6622 1.58254 12.9969 1.68993 13.2759 1.88956C13.5548 2.0892 13.7639 2.37102 13.8737 2.69535L23.8424 32.1416C23.9258 32.3877 23.9491 32.6503 23.9104 32.9071C23.872 33.164 23.7726 33.408 23.6206 33.619C23.4686 33.8301 23.2685 34.002 23.0367 34.1206C22.805 34.2392 22.5482 34.301 22.2874 34.301H33.7746C34.0351 34.301 34.292 34.2389 34.5236 34.1204C34.7553 34.0018 34.9556 33.8299 35.1074 33.6188C35.2594 33.4077 35.3587 33.1637 35.3972 32.9069C35.4356 32.65 35.4123 32.3877 35.329 32.1416L25.3604 2.69535Z" fill="url(#paint2_linear_1508_205)"/>
</g>
<defs>
<linearGradient id="paint0_linear_1508_205" x1="15.953" y1="4.00706" x2="5.30821" y2="35.5513" gradientUnits="userSpaceOnUse">
<stop stop-color="#114A8B"/>
<stop offset="1" stop-color="#0669BC"/>
</linearGradient>
<linearGradient id="paint1_linear_1508_205" x1="19.2964" y1="18.698" x2="16.8221" y2="19.5373" gradientUnits="userSpaceOnUse">
<stop stop-opacity="0.3"/>
<stop offset="0.071" stop-opacity="0.2"/>
<stop offset="0.321" stop-opacity="0.1"/>
<stop offset="0.623" stop-opacity="0.05"/>
<stop offset="1" stop-opacity="0"/>
</linearGradient>
<linearGradient id="paint2_linear_1508_205" x1="17.9345" y1="3.08759" x2="29.6207" y2="34.3179" gradientUnits="userSpaceOnUse">
<stop stop-color="#3CCBF4"/>
<stop offset="1" stop-color="#2892DF"/>
</linearGradient>
<clipPath id="clip0_1508_205">
<rect width="36" height="36" fill="white"/>
</clipPath>
</defs>
</svg>
