<svg width="18" height="18" viewBox="0 0 18 18" fill="none" xmlns="http://www.w3.org/2000/svg">
<path d="M4.8377 13.0985L5.96264 11.6928L2.34121 8.79581L5.96264 5.89885L4.8377 4.49311L0.337906 8.09294C0.232472 8.17725 0.147357 8.2842 0.0888639 8.40587C0.0303711 8.52754 0 8.66081 0 8.79581C0 8.93081 0.0303711 9.06408 0.0888639 9.18575C0.147357 9.30742 0.232472 9.41437 0.337906 9.49868L4.8377 13.0985ZM13.1623 4.49311L12.0374 5.89885L15.6588 8.79581L12.0374 11.6928L13.1623 13.0985L17.6621 9.49868C17.7675 9.41437 17.8526 9.30742 17.9111 9.18575C17.9696 9.06408 18 8.93081 18 8.79581C18 8.66081 17.9696 8.52754 17.9111 8.40587C17.8526 8.2842 17.7675 8.17725 17.6621 8.09294L13.1623 4.49311ZM11.6783 0.890582L8.07844 17.0898L6.32083 16.6992L9.92066 0.5L11.6783 0.890582Z" fill="#2B2B2B"/>
</svg>
