<svg width="36" height="36" viewBox="0 0 36 36" fill="none" xmlns="http://www.w3.org/2000/svg">
<path d="M4.88771 32.4013L2 0H33.7417L30.8501 32.3961L17.8516 36L4.88771 32.4013Z" fill="#1572B6"/>
<path d="M17.8708 33.246L28.3751 30.3339L30.8463 2.6499H17.8708V33.246Z" fill="#33A9DC"/>
<path d="M17.8708 14.3884H23.1294L23.492 10.3191H17.8708V6.34497H27.8351L27.74 7.41083L26.7641 18.3625H17.8708V14.3884V14.3884Z" fill="white"/>
<path d="M17.8953 24.7087L17.8773 24.7139L13.4519 23.5182L13.169 20.3489H9.17944L9.73616 26.5884L17.876 28.8487L17.8953 28.8436V24.7087V24.7087Z" fill="#EBEBEB"/>
<path d="M22.7912 18.1941L22.313 23.5157L17.8811 24.7114V28.8462L26.0274 26.5885L26.0878 25.9174L26.7782 18.1941H22.7912V18.1941Z" fill="white"/>
<path d="M17.885 6.34497V10.3191H8.28583L8.20612 9.42554L8.02483 7.41083L7.92969 6.34497H17.885V6.34497Z" fill="#EBEBEB"/>
<path d="M17.8708 14.3884V18.3626H13.5006L13.4209 17.469L13.2409 15.4543L13.1458 14.3884H17.8708V14.3884Z" fill="#EBEBEB"/>
</svg>
