<svg width="36" height="36" viewBox="0 0 36 36" fill="none" xmlns="http://www.w3.org/2000/svg">
<path d="M35.8307 7.71707H35.2182C34.461 7.71707 33.7477 8.06852 33.2872 8.66671L27.0187 16.8269L20.7502 8.66671C20.2912 8.06852 19.5772 7.71707 18.8207 7.71707H18.2082L26.113 18.0068L18.0389 28.5174H18.6513C19.4086 28.5174 20.1219 28.1659 20.5816 27.5677L27.0195 19.1874L33.4573 27.5677C33.917 28.1659 34.6303 28.5174 35.3876 28.5174H36L27.9259 18.0068L35.8307 7.71707ZM15.3391 24.3874C13.4989 27.1711 9.87615 28.5977 6.41262 27.3397C3.36554 26.2329 1.44104 23.2176 1.44104 19.9885V19.1931H10.0873H18.013V16.228C18.013 11.5623 14.5415 7.4775 9.87471 7.0407C4.51981 6.53934 0 10.7367 0 15.9655V19.9627C0 23.8151 2.31647 27.3963 5.95797 28.701C10.7156 30.4052 15.7196 27.8618 17.4113 23.4966H16.9516C16.2953 23.4966 15.6994 23.8416 15.3391 24.3874ZM1.44104 15.9655C1.44104 11.8126 4.83468 8.43432 9.00648 8.43432C13.1783 8.43432 16.5719 11.8126 16.5719 15.9655V17.7586H1.44104V15.9655Z" fill="black"/>
</svg>
