<svg width="36" height="36" viewBox="0 0 36 36" fill="none" xmlns="http://www.w3.org/2000/svg">
<path d="M5 29.0576L5.21858 28.7529L15.5304 9.19125L15.5523 8.98424L11.0071 0.446743C10.9239 0.290621 10.7937 0.164616 10.6349 0.0865531C10.4762 0.00849067 10.2969 -0.0176765 10.1225 0.0117535C9.94801 0.0411835 9.78723 0.124721 9.66287 0.250546C9.5385 0.376372 9.45685 0.538117 9.42947 0.712896L5 29.0576Z" fill="#FFC24A"/>
<path d="M5.12842 28.8261L5.293 28.5047L15.4981 9.14617L10.9645 0.575241C10.8898 0.426186 10.7687 0.305368 10.6195 0.230887C10.4703 0.156406 10.301 0.132273 10.1369 0.162103C9.97287 0.191933 9.82289 0.27412 9.70946 0.396351C9.59602 0.518582 9.52525 0.674277 9.50774 0.840109L5.12842 28.8261Z" fill="#FFA712"/>
<path d="M18.8657 15.4414L22.2498 11.9698L18.8644 5.51395C18.7899 5.37501 18.6791 5.25887 18.5438 5.17791C18.4085 5.09696 18.2538 5.0542 18.0961 5.0542C17.9385 5.0542 17.7838 5.09696 17.6485 5.17791C17.5132 5.25887 17.4024 5.37501 17.3279 5.51395L15.5188 8.96237V9.25682L18.8657 15.4414Z" fill="#F4BD62"/>
<path d="M18.8052 15.2999L22.0955 11.9312L18.8052 5.65664C18.7514 5.52082 18.6594 5.40348 18.5404 5.31877C18.4213 5.23405 18.2803 5.18558 18.1344 5.17919C17.9884 5.1728 17.8437 5.20877 17.7177 5.28277C17.5917 5.35676 17.4898 5.46562 17.4243 5.59621L15.6062 9.10507L15.5522 9.28379L18.8052 15.2999Z" fill="#FFA50E"/>
<path d="M5.00244 29.0592L5.10145 28.9589L5.46017 28.8136L18.6521 15.6705L18.8193 15.2153L15.529 8.94336L5.00244 29.0592V29.0592Z" fill="#F6820C"/>
<path d="M19.2874 35.6871L31.2297 29.0281L27.8172 8.03027C27.7928 7.88225 27.728 7.74383 27.63 7.63021C27.532 7.51658 27.4047 7.43216 27.2618 7.38619C27.119 7.34022 26.9663 7.3345 26.8204 7.36964C26.6746 7.40478 26.5412 7.47943 26.435 7.5854L5 29.0577L16.8715 35.6858C17.2406 35.8918 17.6562 35.9999 18.0788 35.9999C18.5015 35.9999 18.9171 35.8918 19.2862 35.6858" fill="#FDE068"/>
<path d="M31.1202 28.973L27.7361 8.13324C27.7301 7.99166 27.6822 7.85503 27.5986 7.74065C27.5149 7.62627 27.3992 7.53928 27.2661 7.49069C27.133 7.4421 26.9885 7.43409 26.8508 7.46767C26.7131 7.50126 26.5885 7.57493 26.4927 7.67936L5.12842 29.018L16.8688 35.5754C17.2349 35.7796 17.6472 35.8869 18.0665 35.8869C18.4857 35.8869 18.898 35.7796 19.2641 35.5754L31.1202 28.973Z" fill="#FCCA3F"/>
<path d="M19.2874 35.4866C18.9184 35.6925 18.5028 35.8006 18.0801 35.8006C17.6575 35.8006 17.2418 35.6925 16.8728 35.4866L5.09772 28.9574L5 29.0577L16.8715 35.6859C17.2406 35.8918 17.6562 35.9999 18.0788 35.9999C18.5015 35.9999 18.9171 35.8918 19.2862 35.6859L31.2297 29.0282L31.2001 28.8481L19.2874 35.4866Z" fill="#EEAB37"/>
</svg>
