<svg width="36" height="36" viewBox="0 0 36 36" fill="none" xmlns="http://www.w3.org/2000/svg">
<path d="M4.889 32.4013L2 0H33.7443L30.8514 32.3961L17.8529 36L4.889 32.4013Z" fill="#E44F26"/>
<path d="M17.8721 33.246L28.3764 30.3339L30.8475 2.6499H17.8721V33.246Z" fill="#F1662A"/>
<path d="M17.872 14.666H12.6134L12.2509 10.5967H17.872V6.62256H7.90771L8.00286 7.6897L8.97872 18.6401H17.872V14.666V14.666Z" fill="#EBEBEB"/>
<path d="M17.8721 24.9865L17.8541 24.9916L13.4287 23.7972L13.1458 20.6279H9.15625L9.71297 26.8662L17.8541 29.1265L17.8721 29.1214V24.9865Z" fill="#EBEBEB"/>
<path d="M17.8579 14.666V18.6402H22.7513L22.2911 23.7946L17.8579 24.9903V29.1252L26.0055 26.8662L26.0646 26.195L26.9981 15.7332L27.0958 14.666H17.8579V14.666Z" fill="white"/>
<path d="M17.8579 6.62256V10.5967H27.4571L27.5368 9.70442L27.7181 7.6897L27.8132 6.62256H17.8579V6.62256Z" fill="white"/>
</svg>
