<svg width="36" height="36" viewBox="0 0 36 36" fill="none" xmlns="http://www.w3.org/2000/svg">
<path d="M13.5509 27.8408C13.5509 27.8408 12.1752 28.6408 14.5299 28.9115C17.3827 29.2369 18.8406 29.1903 21.9843 28.5953C21.9843 28.5953 22.8109 29.1135 23.9651 29.5624C16.9178 32.5828 8.01547 29.3874 13.5509 27.8408" fill="#5382A1"/>
<path d="M12.6898 23.8994C12.6898 23.8994 11.1468 25.0416 13.5033 25.2853C16.5506 25.5997 18.9572 25.6254 23.1215 24.8235C23.1215 24.8235 23.6975 25.4075 24.6031 25.7268C16.0824 28.2184 6.59192 25.9233 12.6898 23.8994" fill="#5382A1"/>
<path d="M19.9497 17.2136C21.6862 19.2127 19.4934 21.0118 19.4934 21.0118C19.4934 21.0118 23.9026 18.7357 21.8777 15.8853C19.9865 13.2274 18.5361 11.9065 26.3876 7.35303C26.3876 7.35303 14.0633 10.431 19.9497 17.2135" fill="#E76F00"/>
<path d="M29.2703 30.7561C29.2703 30.7561 30.2884 31.5949 28.1491 32.2439C24.0813 33.4762 11.2183 33.8483 7.64503 32.293C6.36057 31.7343 8.76939 30.9588 9.52706 30.796C10.3172 30.6246 10.7689 30.6566 10.7689 30.6566C9.34038 29.6502 1.53564 32.6325 6.8045 33.4865C21.1733 35.8168 32.9974 32.4373 29.2703 30.7561Z" fill="#5382A1"/>
<path d="M14.2125 19.8157C14.2125 19.8157 7.66966 21.3698 11.8956 21.934C13.6798 22.1729 17.2368 22.1189 20.55 21.8412C23.2578 21.613 25.9767 21.1272 25.9767 21.1272C25.9767 21.1272 25.0219 21.5361 24.3312 22.0078C17.687 23.7553 4.85152 22.9423 8.54668 21.1549C11.6717 19.6443 14.2126 19.8157 14.2126 19.8157" fill="#5382A1"/>
<path d="M25.9497 26.3762C32.704 22.8665 29.581 19.4937 27.4013 19.9482C26.867 20.0593 26.6289 20.1556 26.6289 20.1556C26.6289 20.1556 26.8272 19.845 27.206 19.7105C31.5181 18.1944 34.8345 24.1818 25.814 26.5531C25.814 26.5532 25.9185 26.4598 25.9497 26.3762" fill="#5382A1"/>
<path d="M21.8776 0.000104231C21.8776 0.000104231 25.6182 3.74206 18.3299 9.49582C12.4854 14.1115 16.9971 16.7431 18.3275 19.7499C14.9159 16.6719 12.4123 13.9623 14.092 11.4405C16.5572 7.73845 23.3868 5.94367 21.8776 0" fill="#E76F00"/>
<path d="M14.8762 35.8868C21.3594 36.3018 31.315 35.6565 31.5507 32.5889C31.5507 32.5889 31.0975 33.7519 26.1928 34.6754C20.6592 35.7167 13.8345 35.5951 9.78662 34.9277C9.78673 34.9277 10.6153 35.6136 14.8763 35.8868" fill="#5382A1"/>
</svg>
