<svg width="36" height="36" viewBox="0 0 36 36" fill="none" xmlns="http://www.w3.org/2000/svg">
<path d="M19.951 8.40155C19.009 6.10953 19.141 3.53102 20.5015 1.45651L21.5185 0C19.6375 3.52502 21.4285 7.85405 24.3085 10.1236C25.0792 10.7267 25.9383 11.2074 26.8555 11.5486C27.1015 11.6386 27.3805 11.7346 27.6355 11.7991C30.8545 12.6091 33.478 12.0496 35.0396 9.71556C34.9916 9.78756 34.9301 9.90156 34.8521 10.0456C34.1561 11.3356 32.119 15.1111 26.212 13.9261C26.0995 13.9036 25.9915 13.8661 25.8835 13.8316L25.7875 13.7986L25.7185 13.7761C25.6867 13.7651 25.6547 13.7546 25.6225 13.7446C25.535 13.7145 25.448 13.683 25.3615 13.6501C22.984 12.7441 20.9455 10.8361 19.951 8.40155V8.40155Z" fill="#21609B"/>
<path d="M12.1795 4.44898C9.87397 7.8915 9.99997 12.501 11.7985 16.143C12.131 16.8207 12.5131 17.473 12.9415 18.0946C13.255 18.5641 13.6 19.0846 14.0035 19.4476C14.17 19.6381 14.344 19.8226 14.521 20.0041L14.623 20.1091L14.6575 20.1436C14.8366 20.3246 15.0201 20.5012 15.208 20.6731L15.2095 20.6746L15.2125 20.6776C15.4392 20.8827 15.6718 21.0813 15.91 21.2731L15.97 21.3211C16.18 21.4891 16.3945 21.6541 16.615 21.8116L16.624 21.8176L16.6345 21.8251C16.705 21.8761 16.777 21.9256 16.849 21.9736L16.9285 22.0276C16.9756 22.0587 17.0221 22.0907 17.068 22.1236C17.2255 22.2286 17.3845 22.3291 17.5465 22.4281L17.5915 22.4536L17.614 22.4686C17.7877 22.5722 17.9633 22.6727 18.1405 22.7701L18.187 22.7941L18.247 22.8271C18.325 22.8691 18.403 22.9126 18.484 22.9531L18.529 22.9756C18.761 23.0937 18.9961 23.2058 19.234 23.3116L19.282 23.3311C19.5053 23.4294 19.7309 23.5224 19.9585 23.6101L20.0035 23.6266C20.158 23.6866 20.3125 23.7406 20.4685 23.7946L20.5465 23.8216L20.6785 23.8651C20.737 23.8831 20.7955 23.9041 20.8525 23.9236C21.016 23.9806 21.1795 24.0361 21.3505 24.0661C33.2516 26.1121 35.9996 16.602 35.9996 16.602C33.5231 20.3041 28.7261 22.0711 23.608 20.6911C23.3814 20.6291 23.1563 20.5616 22.933 20.4886C22.873 20.4706 22.813 20.4496 22.753 20.4286L22.7305 20.4211C22.5725 20.368 22.4155 20.312 22.2595 20.2531L22.255 20.2501C21.9962 20.1521 21.7401 20.0471 21.487 19.9351L21.403 19.8976C21.1081 19.7642 20.8179 19.6206 20.533 19.4671L20.47 19.4341L20.29 19.3381C20.1257 19.2462 19.9632 19.1512 19.8025 19.0531C19.4852 18.8593 19.175 18.6542 18.8725 18.4381C18.6541 18.2803 18.4395 18.1173 18.229 17.9491L18.1765 17.9056C18.1459 17.8807 18.1154 17.8557 18.085 17.8306C15.844 15.9945 14.068 13.485 13.225 10.641C12.34 7.689 12.5305 4.37698 14.0635 1.68896L12.1795 4.44898Z" fill="#21609B"/>
<path d="M2.28548 8.45546C-0.90054 13.2105 -0.504538 19.398 1.92998 24.4501C1.97498 24.5476 2.02448 24.6436 2.07248 24.7381L2.10848 24.8101L2.15348 24.8986C2.19121 24.9772 2.23122 25.0547 2.27348 25.1311L2.29298 25.1686L2.39798 25.3636L2.42048 25.4041C2.49548 25.5421 2.57348 25.6801 2.65298 25.8181L2.67848 25.8631C2.79869 26.0727 2.92423 26.2793 3.05498 26.4826L3.08198 26.5276L3.17048 26.6671C3.29648 26.8621 3.42548 27.0586 3.56049 27.2521V27.2536C3.56368 27.2583 3.56719 27.2628 3.57099 27.2671L3.60699 27.3166L3.63699 27.3586C3.75399 27.5236 3.87249 27.6886 3.99399 27.8506L4.12899 28.0276C4.42301 28.4086 4.72712 28.7817 5.04099 29.1466L5.04999 29.1571L5.05749 29.1646L5.06799 29.1766C5.38623 29.5351 5.71538 29.8838 6.055 30.2221L6.1 30.2671L6.2065 30.3721C6.37649 30.5382 6.54952 30.7013 6.7255 30.8611L6.775 30.9061L6.814 30.9391C7.00173 31.1067 7.19175 31.2717 7.38401 31.4341L7.46801 31.5046C7.59551 31.6096 7.72451 31.7146 7.85501 31.8166L8.06051 31.9801C8.20451 32.0896 8.34851 32.1976 8.49401 32.3026L8.51801 32.3206L8.65301 32.4196L8.69501 32.4496C8.82702 32.5456 8.96052 32.6356 9.09552 32.7256L9.11652 32.7406C9.17705 32.7813 9.23706 32.8228 9.29652 32.8651C9.54693 33.0295 9.80048 33.189 10.057 33.3436L10.138 33.3916C10.3651 33.5258 10.5947 33.6558 10.8265 33.7816L10.906 33.8251L10.9945 33.8731C11.083 33.9211 11.17 33.9691 11.26 34.0156L11.2975 34.0336L11.3425 34.0561L11.3935 34.0816C11.4235 34.0966 11.455 34.1116 11.4865 34.1296C11.6725 34.2211 11.8585 34.3111 12.0475 34.3996L12.118 34.4311L12.166 34.4536C12.6348 34.6671 13.1116 34.8622 13.5955 35.0386L13.6105 35.0431L13.6735 35.0671C14.0155 35.1901 14.3606 35.3041 14.7085 35.4091C14.8825 35.4676 15.0581 35.5246 15.2381 35.5591C30.6536 38.4781 35.1312 25.9441 35.1312 25.9441C31.3706 31.0291 24.6956 32.3716 18.3701 30.8776C18.1321 30.8198 17.8968 30.7513 17.6651 30.6721L17.4881 30.6166C17.2601 30.5446 17.0336 30.4666 16.8086 30.3871L16.7156 30.3526C16.5131 30.2776 16.3151 30.2026 16.1156 30.1216L15.9476 30.0526C15.7301 29.9626 15.5141 29.8711 15.3011 29.7736L15.2321 29.7436C15.0288 29.6492 14.8268 29.5522 14.626 29.4526L14.5645 29.4196C14.5324 29.4043 14.5004 29.3888 14.4685 29.3731L14.1475 29.2036L14.0455 29.1496C14.0122 29.1314 13.9787 29.1134 13.945 29.0956L13.765 28.9966C13.594 28.9021 13.426 28.8016 13.258 28.7011L13.1935 28.6636L13.0885 28.6036C12.8274 28.4425 12.5694 28.2764 12.3145 28.1056L12.25 28.0606C11.6099 27.6337 10.9962 27.1684 10.4125 26.6671C10.2342 26.5163 10.0582 26.3627 9.88452 26.2066L9.86052 26.1841C9.6325 25.9743 9.40846 25.7603 9.18852 25.5421C9.06149 25.4166 8.93647 25.289 8.81352 25.1596L8.76252 25.1086C8.56824 24.9055 8.3782 24.6985 8.19251 24.4876L8.18351 24.4786L8.18051 24.4741C8.02151 24.2941 7.86551 24.1081 7.71251 23.9221L7.58951 23.7705C7.43248 23.5758 7.27896 23.3783 7.12901 23.178C6.997 22.998 6.8665 22.821 6.739 22.6395C3.22898 17.6685 1.96748 10.8105 4.77399 5.17944L2.28548 8.45546Z" fill="#21609B"/>
</svg>
