<svg width="17" height="36" viewBox="0 0 17 36" fill="none" xmlns="http://www.w3.org/2000/svg">
<path d="M7.97224 0.0983887L8.93292 1.90275C9.1489 2.23573 9.38289 2.53046 9.65849 2.80494C10.4665 3.60287 11.2197 4.45449 11.9128 5.35399C13.5406 7.49133 14.6385 9.86491 15.4226 12.432C15.8928 14.0001 16.1481 15.6087 16.1673 17.2354C16.246 22.0984 14.5789 26.274 11.2176 29.7444C10.6709 30.2947 10.0802 30.7996 9.45151 31.2541C9.11853 31.2541 8.96104 30.9987 8.8238 30.7636C8.57388 30.3276 8.40754 29.8488 8.33334 29.3518C8.21522 28.7635 8.1376 28.1752 8.17585 27.5677V27.2932C8.14885 27.2347 7.85525 0.236753 7.97224 0.0983887Z" fill="#599636"/>
<path d="M7.97236 0.0387005C7.93299 -0.0400436 7.89362 0.0195769 7.85425 0.057824C7.87337 0.451544 7.73613 0.802518 7.52127 1.13774C7.28504 1.47072 6.97231 1.72607 6.65846 2.00055C4.91484 3.51019 3.54245 5.33368 2.4434 7.37315C0.981012 10.1179 0.227319 13.0596 0.0135853 16.1565C-0.0842824 17.2735 0.366809 21.2152 0.718907 22.3525C1.67959 25.3718 3.40521 27.9017 5.64041 30.0976C6.18937 30.6263 6.77658 31.1167 7.38403 31.5881C7.56065 31.5881 7.57977 31.4306 7.62027 31.3136C7.6977 31.0633 7.75672 30.8076 7.79688 30.5487L8.1906 27.6081L7.97236 0.0387005Z" fill="#6CAC48"/>
<path d="M8.93304 32.4487C8.97241 31.9987 9.1884 31.6253 9.42351 31.2529C9.18727 31.155 9.01179 30.9604 8.87455 30.7433C8.75621 30.5378 8.65825 30.3211 8.58207 30.0965C8.30759 29.2731 8.24909 28.4091 8.17035 27.5677V27.0581C8.07248 27.1368 8.05223 27.8028 8.05223 27.9018C7.99499 28.7911 7.87697 29.6755 7.69901 30.5487C7.64051 30.9019 7.60114 31.254 7.38403 31.5679C7.38403 31.6073 7.38403 31.6466 7.40316 31.7051C7.75638 32.7446 7.85312 33.8031 7.91274 34.8819V35.2756C7.91274 35.7458 7.89362 35.6468 8.28397 35.8043C8.44145 35.8628 8.61694 35.8831 8.77443 36.0001C8.89255 36.0001 8.91167 35.9022 8.91167 35.8234L8.85317 35.1766V33.3723C8.83405 33.0573 8.89255 32.7446 8.93192 32.4498L8.93304 32.4487Z" fill="#C2BFBF"/>
</svg>
