<svg width="50" height="36" viewBox="0 0 50 36" fill="none" xmlns="http://www.w3.org/2000/svg">
<path d="M15.279 23.5903L16.7378 28.3234C17.0655 29.3981 17.2022 30.1483 17.1474 30.5759C17.9453 28.4391 18.5027 26.1106 18.8198 23.5903H20.5739C19.8197 27.6933 18.8249 30.675 17.5901 32.535C16.6281 33.9683 15.5741 34.6849 14.4265 34.6849C14.1205 34.6849 13.7432 34.5925 13.2956 34.4089V33.4199C13.5143 33.4519 13.7709 33.4691 14.066 33.4691C14.6014 33.4691 15.0329 33.3207 15.3612 33.0245C15.7543 32.6637 15.9511 32.2581 15.9511 31.8086C15.9511 31.5017 15.7976 30.8717 15.4921 29.9189L13.4596 23.5903H15.2789H15.279ZM4.11465 20.6812L6.78651 28.8333H6.80301L9.49129 20.6812H11.6877C12.1686 24.724 12.4527 28.4231 12.5398 31.7761H10.6881C10.6229 28.6417 10.4425 25.6944 10.1473 22.9336H10.1312L7.31142 31.7761H5.90123L3.09849 22.9336H3.08199C2.87406 25.585 2.74318 28.5323 2.68862 31.7761H1C1.10912 27.8311 1.38222 24.1331 1.81928 20.6812H4.11474H4.11465Z" fill="#00758F"/>
<path d="M34.0464 20.5167C36.9205 20.5167 38.3576 22.3529 38.3576 26.0235C38.3576 28.0181 37.9254 29.5247 37.0618 30.5426C36.9062 30.7286 36.7342 30.8893 36.5531 31.0381L38.587 32.0438L38.585 32.0437L37.8628 33.2907L35.2141 31.7453C34.7751 31.8753 34.292 31.9403 33.7656 31.9403C32.3544 31.9403 31.3003 31.529 30.6033 30.7075C29.8383 29.7987 29.456 28.3679 29.456 26.4178C29.456 24.4344 29.8875 22.9335 30.7513 21.9143C31.538 20.9821 32.6366 20.5166 34.0464 20.5166V20.5167ZM25.2452 20.5328C26.2724 20.5328 27.2064 20.8077 28.0477 21.3555L27.6204 22.3077C26.9005 22.0017 26.1907 21.848 25.4908 21.848C24.9228 21.848 24.4852 21.9847 24.1802 22.2598C23.8734 22.5324 23.6837 22.8832 23.6837 23.3109C23.6837 23.9681 24.1518 24.538 25.0163 25.0195C25.2995 25.1743 25.5817 25.3309 25.863 25.4893L25.9275 25.5256L25.9598 25.5437L26.0244 25.58L26.0567 25.5982L26.1212 25.6346C26.7755 26.0035 27.3913 26.3556 27.3913 26.3556C28.2556 26.9692 28.6865 27.6234 28.6865 28.7009C28.6865 29.6418 28.3417 30.4142 27.6543 31.0186C26.9665 31.6203 26.0424 31.922 24.8852 31.922C23.8028 31.922 22.7539 31.5748 21.7378 30.8861L22.2131 29.933C23.0875 30.3713 23.8788 30.5902 24.5893 30.5902C25.2557 30.5902 25.7773 30.4414 26.1546 30.1476C26.5312 29.8516 26.7569 29.4389 26.7569 28.9154C26.7569 28.2567 26.2986 27.6935 25.458 27.2211C25.1948 27.0757 24.9325 26.929 24.6709 26.7808L24.6065 26.7443C24.4882 26.6775 24.3691 26.6098 24.2523 26.5435L24.1891 26.5075C23.6214 26.1846 23.1306 25.9025 23.1306 25.9025C22.2903 25.2878 21.8689 24.6283 21.8689 23.5415C21.8689 22.6428 22.1831 21.9163 22.8107 21.3636C23.4397 20.8098 24.2513 20.5328 25.2452 20.5328V20.5328ZM41.7353 20.6813V30.4114H45.2263V31.7762H39.9647V20.6813H41.7353ZM47.1662 30.4156V30.6463H46.7824V31.775H46.4889V30.6463H46.0902V30.4156H47.1663H47.1662ZM47.8749 30.4156L48.2435 31.3423L48.582 30.4156H48.998V31.775H48.7214V30.7405L48.3361 31.775H48.1367L47.7507 30.7405H47.7359V31.775H47.4742V30.4156H47.875H47.8749ZM33.8656 21.8811C32.1719 21.8811 31.3246 23.2789 31.3246 26.0727C31.3246 27.673 31.5492 28.8334 31.9974 29.5567C32.4125 30.2261 33.0627 30.5601 33.9479 30.5601C35.6416 30.5601 36.4888 29.1514 36.4888 26.3354C36.4888 24.7575 36.2643 23.607 35.8167 22.8833C35.4011 22.2154 34.7512 21.8811 33.8657 21.8811H33.8656Z" fill="#F29111"/>
<path d="M29.4269 2.68747C29.9888 1.30692 31.9533 2.35241 32.7157 2.83466C32.9025 2.95532 33.1168 3.21022 33.331 3.30444C33.6652 3.31756 33.9992 3.34372 34.334 3.35769C34.9619 3.50525 35.5501 3.62581 36.0449 3.90763C38.3444 5.26184 39.8413 6.64184 41.2189 8.92126C41.5133 9.40408 41.6604 9.92654 41.9009 10.449C42.2346 11.2278 42.6096 12.0453 42.997 12.7817C43.1704 13.1308 43.3046 13.519 43.5454 13.8139C43.6395 13.9487 43.9066 13.9884 44.0662 14.069C44.5076 14.2974 45.0423 14.4709 45.4575 14.739C46.2327 15.2224 46.9822 15.7984 47.6636 16.3881C47.9175 16.6157 48.0906 16.9379 48.3326 17.1786V17.3001C48.1178 17.366 47.9038 17.4335 47.6895 17.4876C47.2216 17.6078 46.8072 17.5806 46.3532 17.7009C46.0727 17.7823 45.7245 17.8896 45.4303 17.9169L45.4575 17.9443C45.6305 18.4388 46.5669 18.841 46.9951 19.1368C47.5153 19.5122 47.9972 19.9674 48.3852 20.4903C48.5191 20.6237 48.6531 20.7451 48.7864 20.8781C48.8796 21.0129 48.9059 21.1873 49.0002 21.3075V21.3482C48.8957 21.3113 48.8206 21.241 48.7495 21.1675L48.707 21.1232C48.6645 21.0791 48.6217 21.0358 48.5729 21.0001C48.2777 20.7985 47.9847 20.5574 47.6895 20.37C47.1822 20.048 46.5937 19.8612 46.0727 19.538C45.7782 19.3504 45.4974 19.1368 45.2166 18.9221C44.9621 18.734 44.6818 18.3726 44.5218 18.1045C44.4276 17.9564 44.4147 17.7823 44.3071 17.6751C44.3263 17.4962 44.4902 17.443 44.6557 17.3993L44.6938 17.3893C44.7509 17.3745 44.8067 17.3597 44.8555 17.3401C45.5506 17.045 46.3792 16.9379 47.4493 16.9647C47.409 16.696 46.7403 16.3612 46.5269 16.2004C46.0984 15.8916 45.6448 15.5693 45.1903 15.2883C44.9494 15.1411 44.5344 15.0337 44.2676 14.9134C43.9066 14.7658 43.1042 14.6183 42.9041 14.3373C42.5643 13.8942 42.3201 13.3657 42.0831 12.8319L42.0186 12.6863C41.9971 12.6377 41.9756 12.5892 41.9539 12.5407C41.6738 11.8978 41.3258 11.2276 41.045 10.5694C40.8982 10.2483 40.8308 9.96648 40.67 9.65851C39.6944 7.76871 38.2504 6.18649 36.4996 5.07378C35.9242 4.71172 35.2827 4.37665 34.5745 4.14894C34.1732 4.02772 33.6915 4.09475 33.2639 4.00175H32.9825C32.7423 3.93406 32.5418 3.67944 32.3543 3.54519C31.9404 3.26413 31.5259 3.07541 31.0309 2.87488C30.8574 2.79444 30.3622 2.60713 30.1893 2.7546C30.0822 2.7815 30.0279 2.82191 30.0016 2.92935C29.8951 3.08966 29.9888 3.33116 30.055 3.479C30.2559 3.90744 30.5364 4.16206 30.791 4.52412C31.0175 4.84522 31.2988 5.20728 31.4594 5.5564C31.8059 6.30687 31.9673 7.13833 32.2883 7.88871C32.4074 8.17089 32.5958 8.49198 32.7691 8.74651C32.916 8.94855 33.1831 9.09461 33.2639 9.35036C33.425 9.61848 33.0228 10.5032 32.9297 10.7842C32.5814 11.8836 32.6489 13.4118 33.05 14.3647L33.0713 14.415L33.0927 14.4659C33.2392 14.8149 33.3959 15.1908 33.7852 15.2884C33.8121 15.2617 33.7852 15.2757 33.8384 15.2617C33.9326 14.5241 33.9592 13.8138 34.2134 13.2367C34.3603 12.8758 34.6537 12.6207 34.8547 12.3262C34.9888 12.4064 34.9888 12.6484 35.0687 12.8085C35.2427 13.2238 35.4295 13.6792 35.644 14.0957C36.0843 14.9535 36.5796 15.7851 37.1409 16.5355C37.3289 16.8036 37.5956 17.0986 37.8362 17.34C37.9433 17.4335 38.0633 17.4875 38.1439 17.6077H38.1701V17.6482C37.769 17.5004 37.5148 17.0855 37.1949 16.8432C36.5927 16.3879 35.8715 15.7041 35.4563 15.0479C35.2827 14.6712 35.095 14.3102 34.9079 13.9354V13.9083C34.8279 14.0153 34.8547 14.1217 34.8147 14.2837C34.6411 14.9535 34.7748 15.7176 34.1732 15.9586C33.4913 16.2408 32.9826 15.5032 32.7691 15.1681C32.087 14.0557 31.9001 12.179 32.3812 10.6641C32.488 10.3287 32.5026 9.92654 32.6891 9.65879C32.6488 9.41673 32.4623 9.35054 32.3543 9.20223C32.1672 8.94873 32.007 8.65342 31.8605 8.37189C31.579 7.82196 31.3788 7.16486 31.1651 6.57508C31.0712 6.33424 31.0443 6.09246 30.9506 5.86446C30.7909 5.51646 30.4964 5.16734 30.2693 4.85947C29.9617 4.41697 29.0658 3.55935 29.4269 2.68747V2.68747ZM33.8118 5.31387C33.8475 5.34968 33.8906 5.381 33.9352 5.41184L33.9891 5.44878C34.0608 5.49846 34.1302 5.55078 34.1728 5.62203C34.2403 5.71634 34.2529 5.80943 34.3337 5.90393C34.3337 6.22615 34.2403 6.44037 34.0518 6.57387C34.0518 6.57387 34.0389 6.58793 34.0257 6.60105C33.9188 6.38627 33.8252 6.17262 33.7176 5.95802C33.585 5.77071 33.3976 5.62212 33.2896 5.40809H33.2636V5.38118C33.425 5.34134 33.585 5.31387 33.8118 5.31387Z" fill="#00758F"/>
</svg>
