<svg width="32" height="36" viewBox="0 0 32 36" fill="none" xmlns="http://www.w3.org/2000/svg">
<path d="M15.9446 35.9332C15.4495 35.9332 14.9873 35.8012 14.5581 35.5701L10.1676 32.9622C9.50736 32.599 9.83748 32.467 10.0355 32.401C10.9269 32.1039 11.0919 32.0378 12.0162 31.5096C12.1153 31.4436 12.2473 31.4766 12.3464 31.5427L15.7136 33.5564C15.8456 33.6224 16.0107 33.6224 16.1097 33.5564L29.2814 25.9307C29.4134 25.8646 29.4794 25.7326 29.4794 25.5675V10.3492C29.4794 10.1841 29.4134 10.0521 29.2814 9.98603L16.1097 2.39335C15.9776 2.32732 15.8126 2.32732 15.7136 2.39335L2.5419 9.98603C2.40985 10.0521 2.34383 10.2171 2.34383 10.3492V25.5675C2.34383 25.6996 2.40985 25.8646 2.5419 25.9307L6.14017 28.0104C8.08786 29.0008 9.30929 27.8453 9.30929 26.6899V11.6696C9.30929 11.4716 9.47435 11.2735 9.70543 11.2735H11.389C11.5871 11.2735 11.7852 11.4385 11.7852 11.6696V26.6899C11.7852 29.2979 10.3657 30.8164 7.88979 30.8164C7.13052 30.8164 6.53631 30.8164 4.85272 29.9911L1.38649 28.0104C0.528187 27.5152 0 26.5909 0 25.6006V10.3822C0 9.39182 0.528187 8.46749 1.38649 7.97232L14.5581 0.346622C15.3834 -0.115541 16.5058 -0.115541 17.3311 0.346622L30.5028 7.97232C31.3611 8.46749 31.8893 9.39182 31.8893 10.3822V25.6006C31.8893 26.5909 31.3611 27.5152 30.5028 28.0104L17.3311 35.6361C16.902 35.8342 16.4068 35.9332 15.9446 35.9332ZM20.0051 25.4685C14.228 25.4685 13.0396 22.8276 13.0396 20.5828C13.0396 20.3847 13.2047 20.1866 13.4357 20.1866H15.1524C15.3504 20.1866 15.5155 20.3187 15.5155 20.5168C15.7796 22.2664 16.5388 23.1247 20.0381 23.1247C22.8111 23.1247 23.9995 22.4975 23.9995 21.0119C23.9995 20.1536 23.6694 19.5264 19.3448 19.0973C15.7466 18.7341 13.5018 17.9418 13.5018 15.0698C13.5018 12.3959 15.7466 10.8113 19.5099 10.8113C23.7354 10.8113 25.8151 12.2638 26.0792 15.433C26.0792 15.532 26.0462 15.631 25.9802 15.7301C25.9142 15.7961 25.8151 15.8621 25.7161 15.8621H23.9995C23.8344 15.8621 23.6694 15.7301 23.6364 15.565C23.2402 13.7494 22.2169 13.1552 19.5099 13.1552C16.4728 13.1552 16.1097 14.2115 16.1097 15.0038C16.1097 15.9611 16.5388 16.2582 20.6323 16.7864C24.6927 17.3146 26.6074 18.0739 26.6074 20.9129C26.5744 23.8179 24.1976 25.4685 20.0051 25.4685Z" fill="#539E43"/>
</svg>
