<svg width="48" height="36" viewBox="0 0 48 36" fill="none" xmlns="http://www.w3.org/2000/svg">
<path d="M24 4C17.6001 4 13.5999 7.20006 12 13.6C14.4 10.3999 17.1999 9.19994 20.4 10C22.2257 10.4564 23.5307 11.7811 24.9752 13.2471C27.3283 15.6357 30.0516 18.4 36 18.4C42.3999 18.4 46.4001 15.1999 48 8.8C45.6 12.0001 42.8001 13.2001 39.6 12.4C37.7743 11.9436 36.4693 10.6189 35.0248 9.15288C32.6717 6.76431 29.9484 4 24 4ZM12 18.4C5.60006 18.4 1.59994 21.6001 0 28C2.4 24.7999 5.19994 23.5999 8.4 24.4C10.2257 24.8564 11.5307 26.1811 12.9752 27.6471C15.3283 30.0357 18.0516 32.8 24 32.8C30.3999 32.8 34.4001 29.5999 36 23.2C33.6 26.4001 30.8001 27.6001 27.6 26.8C25.7743 26.3436 24.4693 25.0189 23.0248 23.5529C20.6717 21.1643 17.9484 18.4 12 18.4Z" fill="url(#paint0_linear_836_508)"/>
<defs>
<linearGradient id="paint0_linear_836_508" x1="-1.33344" y1="13.216" x2="40.1224" y2="37.1187" gradientUnits="userSpaceOnUse">
<stop stop-color="#2298BD"/>
<stop offset="1" stop-color="#0ED7B5"/>
</linearGradient>
</defs>
</svg>
