<svg width="24" height="24" viewBox="0 0 24 24" fill="none" xmlns="http://www.w3.org/2000/svg">
<path d="M24 4.3143C23.1174 4.70538 22.1693 4.96963 21.1726 5.08907C22.201 4.47368 22.9704 3.50514 23.3373 2.36415C22.371 2.93809 21.3135 3.34207 20.2107 3.55855C19.4691 2.76672 18.4868 2.24189 17.4164 2.06553C16.3459 1.88916 15.2472 2.07115 14.2907 2.58322C13.3343 3.09529 12.5737 3.9088 12.127 4.89744C11.6803 5.88609 11.5725 6.99456 11.8203 8.05075C9.86244 7.95245 7.94711 7.44357 6.19863 6.55713C4.45016 5.67069 2.90761 4.42651 1.6711 2.90533C1.2483 3.63465 1.0052 4.48024 1.0052 5.3808C1.00473 6.19151 1.20437 6.98979 1.58641 7.70484C1.96846 8.41988 2.52109 9.02957 3.19528 9.4798C2.4134 9.45493 1.64877 9.24366 0.965031 8.86358V8.927C0.964952 10.064 1.35827 11.1661 2.07823 12.0462C2.7982 12.9262 3.80048 13.5301 4.915 13.7553C4.18968 13.9516 3.42923 13.9805 2.69109 13.8399C3.00555 14.8182 3.61807 15.6738 4.44291 16.2867C5.26776 16.8997 6.26363 17.2394 7.29111 17.2582C5.5469 18.6274 3.39282 19.3701 1.17537 19.3669C0.782575 19.367 0.39011 19.344 0 19.2982C2.25083 20.7454 4.87097 21.5134 7.5469 21.5105C16.6053 21.5105 21.5573 14.0079 21.5573 7.50112C21.5573 7.28972 21.552 7.07621 21.5425 6.86481C22.5057 6.16823 23.3372 5.30564 23.9979 4.31747L24 4.3143V4.3143Z" fill="#2B2B2B"/>
</svg>
