<svg width="28" height="28" viewBox="0 0 28 28" fill="none" xmlns="http://www.w3.org/2000/svg">
<path d="M22.75 3.5H5.25C4.2835 3.5 3.5 4.2835 3.5 5.25V18.0833C3.5 19.0498 4.2835 19.8333 5.25 19.8333H22.75C23.7165 19.8333 24.5 19.0498 24.5 18.0833V5.25C24.5 4.2835 23.7165 3.5 22.75 3.5Z" stroke="black" stroke-width="2.33333" stroke-linejoin="round"/>
<path d="M8.16675 24.4999H19.8334M14.0001 19.8333V24.4999" stroke="black" stroke-width="2.33333" stroke-linecap="round" stroke-linejoin="round"/>
<path d="M11.5308 16.5C12.2923 16.5 12.9509 16.2281 13.4859 15.6923C14.0474 15.1299 14.3395 14.2631 14.2615 13.4419L18.5438 9.15348C18.8361 8.86012 19.0002 8.46256 19 8.04812C18.9998 7.63368 18.8354 7.23626 18.5428 6.94316C17.9537 6.35228 16.9256 6.35228 16.3366 6.94316L11.8943 11.3918C10.9377 11.4765 9.99065 12.1535 9.99065 13.3543C9.99065 13.506 10.0011 13.6487 10.0116 13.7849C10.0517 14.3012 10.0662 14.495 9.2761 14.8906C9.1985 14.9296 9.13235 14.9881 9.08417 15.0604C9.03598 15.1327 9.00741 15.2164 9.00126 15.3031C8.99511 15.3898 9.01158 15.4767 9.04907 15.5551C9.08656 15.6335 9.14377 15.7008 9.21509 15.7504C9.26009 15.7804 10.3117 16.5 11.5308 16.5ZM17.0437 7.65073C17.1503 7.54823 17.2925 7.49108 17.4404 7.49126C17.5882 7.49145 17.7303 7.54896 17.8367 7.65173C17.8887 7.70381 17.93 7.76564 17.9581 7.83368C17.9863 7.90173 18.0008 7.97467 18.0008 8.04832C18.0008 8.12198 17.9863 8.19491 17.9581 8.26296C17.93 8.33101 17.8887 8.39284 17.8367 8.44492L14.0004 12.2867L13.2074 11.4925L17.0437 7.65073ZM11.0092 13.7073C11.0002 13.5951 10.9907 13.478 10.9907 13.3538C10.9907 12.5801 11.7133 12.3758 12.0958 12.3758C12.2738 12.3758 12.4453 12.4124 12.5778 12.479C13.0504 12.7168 13.2079 13.1264 13.2564 13.4284C13.3449 13.9742 13.1479 14.6142 12.7783 14.9842C12.4328 15.3302 12.0248 15.4985 11.5308 15.4985C11.1557 15.4985 10.7907 15.4004 10.4932 15.2847C11.0342 14.7974 11.0537 14.2887 11.0092 13.7073Z" fill="black"/>
</svg>
