<svg width="36" height="36" viewBox="0 0 36 36" fill="none" xmlns="http://www.w3.org/2000/svg">
<path fill-rule="evenodd" clip-rule="evenodd" d="M0 18C0 8.05909 8.05909 0 18 0C27.9409 0 36 8.05909 36 18C36 27.9409 27.9409 36 18 36C8.05909 36 0 27.9409 0 18ZM22.5818 13.7455C22.3214 13.3983 21.9338 13.1687 21.5041 13.1074C21.0745 13.046 20.6381 13.1578 20.2909 13.4182C19.9437 13.6786 19.7142 14.0662 19.6528 14.4959C19.5914 14.9255 19.7032 15.3619 19.9636 15.7091L21.6818 18L19.9636 20.2909C19.7032 20.6381 19.5914 21.0745 19.6528 21.5041C19.7142 21.9338 19.9437 22.3214 20.2909 22.5818C20.6381 22.8422 21.0745 22.954 21.5041 22.8926C21.9338 22.8313 22.3214 22.6017 22.5818 22.2545L23.7273 20.7278L24.8727 22.2545C25.1331 22.6017 25.5208 22.8313 25.9504 22.8926C26.1631 22.923 26.3798 22.9112 26.5879 22.8579C26.7961 22.8046 26.9917 22.7108 27.1636 22.5818C27.3355 22.4529 27.4804 22.2914 27.5899 22.1064C27.6994 21.9215 27.7713 21.7169 27.8017 21.5041C27.8321 21.2914 27.8203 21.0748 27.767 20.8666C27.7137 20.6584 27.6198 20.4628 27.4909 20.2909L25.7727 18L27.4909 15.7091C27.7513 15.3619 27.8631 14.9255 27.8017 14.4959C27.7404 14.0662 27.5108 13.6786 27.1636 13.4182C26.9917 13.2892 26.7961 13.1954 26.5879 13.1421C26.3798 13.0888 26.1631 13.077 25.9504 13.1074C25.5208 13.1687 25.1331 13.3983 24.8727 13.7455L23.7273 15.2722L22.5818 13.7455ZM11.4545 14.7273C11.4545 14.2933 11.2821 13.8771 10.9753 13.5702C10.6684 13.2633 10.2522 13.0909 9.81818 13.0909C9.38419 13.0909 8.96798 13.2633 8.6611 13.5702C8.35422 13.8771 8.18182 14.2933 8.18182 14.7273V18C8.18182 18.8067 8.41091 19.9816 9.144 21.0011C9.93927 22.1073 11.2484 22.9091 13.0909 22.9091C14.9335 22.9091 16.2425 22.104 17.0378 21.0011C17.7709 19.9816 18 18.8084 18 18V14.7273C18 14.2933 17.8276 13.8771 17.5207 13.5702C17.2138 13.2633 16.7976 13.0909 16.3636 13.0909C15.9296 13.0909 15.5134 13.2633 15.2066 13.5702C14.8997 13.8771 14.7273 14.2933 14.7273 14.7273V18C14.7273 18.2831 14.6291 18.7462 14.3804 19.0898C14.1938 19.35 13.8665 19.6364 13.0909 19.6364C12.3153 19.6364 11.988 19.35 11.8015 19.0898C11.5836 18.7674 11.4632 18.389 11.4545 18V14.7273Z" fill="#FF7262"/>
</svg>
