<svg width="36" height="36" viewBox="0 0 36 36" fill="none" xmlns="http://www.w3.org/2000/svg">
<path d="M28.4241 17.2191C28.4241 15.3111 27.7379 13.9904 27.1506 12.9621L26.9706 12.6696C26.2574 11.5221 25.6341 10.5141 25.6341 9.33962C25.6341 7.92212 26.7096 6.59912 28.2261 6.59912C28.2711 6.59912 28.3139 6.60362 28.3566 6.60587L28.4264 6.61262C25.5828 4.00068 21.861 2.55342 17.9999 2.55812C15.4409 2.5568 12.9218 3.19222 10.6695 4.4071C8.4173 5.62198 6.50274 7.37816 5.09837 9.51737C5.45837 9.52862 5.80262 9.53762 6.09287 9.53762C7.70612 9.53762 10.2059 9.34187 10.2059 9.34187C11.0384 9.29237 11.1374 10.5141 10.3049 10.6131C10.3049 10.6131 9.47012 10.7121 8.53862 10.7594L14.1636 27.4859L17.5386 17.3474L15.1311 10.7571C14.3009 10.7076 13.5134 10.6109 13.5134 10.6109C12.6809 10.5614 12.7799 9.28787 13.6101 9.33737C13.6101 9.33737 16.1616 9.53312 17.6781 9.53312C19.2936 9.53312 21.7956 9.33737 21.7956 9.33737C22.6281 9.28787 22.7249 10.5119 21.8924 10.6109C21.8924 10.6109 21.0554 10.7076 20.1261 10.7571L25.7061 27.3554L27.2451 22.2096L27.3666 21.8204C27.9741 19.8854 28.4219 18.4566 28.4219 17.2169L28.4241 17.2191ZM2.55812 17.9999C2.55796 20.8995 3.37415 23.7407 4.91326 26.1982C6.45237 28.6557 8.65224 30.6302 11.2611 31.8959L3.89237 11.7134C3.00999 13.6916 2.55532 15.8338 2.55812 17.9999V17.9999Z" fill="#00749C"/>
<path d="M13.6372 32.8118L18.2722 19.3501L23.0175 32.3551C23.049 32.4293 23.085 32.4991 23.1277 32.5666C20.0687 33.6443 16.7478 33.7301 13.6372 32.8118V32.8118ZM31.5472 10.5908C31.6147 11.0836 31.653 11.6101 31.653 12.1793C31.653 13.7453 31.3605 15.5071 30.4785 17.7098L25.7625 31.3448C29.2426 29.3229 31.7952 26.0215 32.8762 22.1446C33.9573 18.2677 33.4812 14.1218 31.5495 10.5908H31.5472Z" fill="#00749C"/>
<path fill-rule="evenodd" clip-rule="evenodd" d="M0 18C0 8.07525 8.07525 0 18 0C27.9225 0 36 8.07525 36 18C36 27.9247 27.9225 36 18 36C8.07525 36 0 27.9247 0 18ZM0.82575 18C0.82575 27.4703 8.52975 35.1743 18 35.1743C27.468 35.1743 35.172 27.4703 35.172 18C35.172 8.5275 27.468 0.82575 18 0.82575C8.5275 0.82575 0.82575 8.5275 0.82575 18Z" fill="#00749C"/>
</svg>
